<svg xmlns="http://www.w3.org/2000/svg" width="24" height="24" aria-hidden="true" class="fl-none"><path fill-rule="evenodd" d="M12 3a9 9 0 1 1 0 18 9 9 0 0 1 0-18Zm0 1.5a7.5 7.5 0 1 0 0 15 7.5 7.5 0 0 0 0-15ZM12 15a1 1 0 1 1 0 2 1 1 0 0 1 0-2Zm0-8.75a3.472 3.472 0 0 1 .923 6.82.227.227 0 0 0-.173.221v.309a.4.4 0 0 1-.4.4h-.7a.4.4 0 0 1-.4-.4v-1.512a.4.4 0 0 1 .392-.4c.442-.01.698-.021.767-.036a1.973 1.973 0 1 0-2.327-2.39 1.21 1.21 0 0 0-.02.113.4.4 0 0 1-.396.347h-.708a.4.4 0 0 1-.399-.438 2.23 2.23 0 0 1 .02-.155A3.473 3.473 0 0 1 12 6.25Z" clip-rule="evenodd"/></svg>