<svg xmlns="http://www.w3.org/2000/svg" width="24" height="24" aria-hidden="true" class="fl-none"><path fill-rule="evenodd" d="M12.322 2a8.322 8.322 0 0 1 7.234 12.44l-1.085 1.451c-.598.625-1.787 1.815-3.566 3.57l-1.884 1.852a1 1 0 0 1-1.4 0l-3.703-3.656-1.322-1.329c-.311-.318-.814-.948-1.509-1.89A8.322 8.322 0 0 1 12.322 2Zm0 1.5a6.822 6.822 0 0 0-6.083 9.914l.133.246.592.884.218.236.59.605c.462.469 1.11 1.116 1.93 1.93l2.215 2.185.123.12a.4.4 0 0 0 .561 0l.074-.072 2.627-2.59 1.903-1.912c.135-.14.245-.253.329-.342l.153-.17.585-.875.133-.243a6.775 6.775 0 0 0 .732-2.767l.008-.327A6.822 6.822 0 0 0 12.322 3.5Zm0 3.25a3.75 3.75 0 1 1 0 7.5 3.75 3.75 0 0 1 0-7.5Zm0 1.5a2.25 2.25 0 1 0 0 4.5 2.25 2.25 0 0 0 0-4.5Z" clip-rule="evenodd"/></svg>