<svg xmlns="http://www.w3.org/2000/svg" width="24" height="24" aria-hidden="true" class="fl-none"><path fill-rule="evenodd" d="M6 3.75a2.75 2.75 0 0 0-2.745 2.582L3.25 6.5v11a2.75 2.75 0 0 0 2.582 2.745L6 20.25h6a2.75 2.75 0 0 0 2.745-2.582l.005-.168v-.503a.75.75 0 0 0-1.493-.102l-.007.102v.503a1.25 1.25 0 0 1-1.122 1.244L12 18.75H6a1.25 1.25 0 0 1-1.244-1.122L4.75 17.5v-11c0-.647.492-1.18 1.122-1.244L6 5.25h6c.647 0 1.18.492 1.243 1.122l.007.128v2.56a.75.75 0 0 0 1.493.102l.007-.102V6.5a2.75 2.75 0 0 0-2.582-2.745L12 3.75H6Zm11.323 5.647.084.073 3.226 3.224a.4.4 0 0 1 .002.564l-.155.156a.752.752 0 0 1-.205.208l-2.887 2.906a.75.75 0 0 1-1.137-.972l.072-.084 1.54-1.552a.1.1 0 0 0-.072-.17H8.855a.75.75 0 0 1-.101-1.493l.101-.007h8.97a.1.1 0 0 0 .072-.17l-1.55-1.55a.75.75 0 0 1-.073-.976l.073-.084a.75.75 0 0 1 .976-.073Z" clip-rule="evenodd"/></svg>