<svg xmlns="http://www.w3.org/2000/svg" width="24" height="24" aria-hidden="true" class="fl-none"><path d="M13.1 14H13v.01H7.65a.745.745 0 0 0 0 1.48h5.45c.37-.05.65-.36.65-.74s-.28-.69-.65-.75ZM16.1 14H16v.01h-.35a.745.745 0 0 0 0 1.48h.45c.37-.05.65-.36.65-.74s-.28-.69-.65-.75ZM16.33 10.49h-.1v.01H7.66c-.37.05-.66.36-.66.74s.28.69.66.74h8.67c.37-.05.66-.36.66-.74s-.28-.69-.66-.75ZM16.33 6.98h-.1V7H7.66c-.37.06-.66.35-.66.73s.28.69.66.74h8.67c.37-.05.66-.36.66-.74s-.28-.69-.66-.75Z"/><path fill-rule="evenodd" d="M16.62 19.3a.4.4 0 0 0-.5.1l-1.21 1.46c-.14.16-.38.19-.55.06l-2.12-1.59a.39.39 0 0 0-.48 0l-2.12 1.59c-.17.13-.41.1-.55-.06L7.88 19.4a.4.4 0 0 0-.5-.1l-2.79 1.52c-.19.11-.44.03-.54-.16a.414.414 0 0 1-.05-.19V5c0-1.1.9-2 2-2h12c1.1 0 2 .9 2 2v15.47c0 .22-.18.4-.4.4-.07 0-.13-.02-.19-.05l-2.79-1.52Zm.702-1.326a1.9 1.9 0 0 0-2.362.475l-.535.645-1.277-.958a1.89 1.89 0 0 0-2.296 0l-1.277.958-.535-.645a1.9 1.9 0 0 0-2.362-.475l-.008.005-1.17.637V5c0-.272.228-.5.5-.5h12c.272 0 .5.228.5.5v13.616l-1.17-.637-.008-.005Z" clip-rule="evenodd"/></svg>