<svg xmlns="http://www.w3.org/2000/svg" width="16" height="16" aria-hidden="true" class="fl-interaction-secondary" data-testid="RIDER"><path fill-rule="evenodd" d="M9.238 3.288a1.2 1.2 0 1 1-2.4 0 1.2 1.2 0 0 1 2.4 0ZM6.144 9.146a.749.749 0 0 1-.129-.66l.85-3.05a.75.75 0 0 1 1.244-.338l1.563 1.014h1.866a.625.625 0 1 1 0 1.25h-2.05a.625.625 0 0 1-.34-.1l-1.046-.678-.467 1.676 2.034.103a.625.625 0 0 1 .527.904l-.1.2-.001.004-1.55 3.05a.625.625 0 0 1-1.115-.567l1.216-2.391-1.99-.101a.625.625 0 0 1-.512-.316ZM2.538 4.688a1.2 1.2 0 0 0-1.2 1.2v1.6a1.2 1.2 0 0 0 1.2 1.2h1.6a1.2 1.2 0 0 0 1.2-1.2v-1.6a1.2 1.2 0 0 0-1.2-1.2h-1.6Zm1.8 5.824a1.075 1.075 0 1 0 0 2.15 1.075 1.075 0 0 0 0-2.15Zm-2.325 1.075a2.325 2.325 0 1 1 4.65 0 2.325 2.325 0 0 1-4.65 0Zm9.25 0a1.075 1.075 0 1 1 2.15 0 1.075 1.075 0 0 1-2.15 0Zm1.075-2.324a2.325 2.325 0 1 0 0 4.65 2.325 2.325 0 0 0 0-4.65Z" clip-rule="evenodd"/></svg>