<svg xmlns="http://www.w3.org/2000/svg" width="24" height="24" aria-hidden="true" class="fl-none" data-testid="personal-icon"><path fill-rule="evenodd" d="M12 11.5a3.5 3.5 0 1 0 0-7 3.5 3.5 0 0 0 0 7Zm-1.943 2.704A9.272 9.272 0 0 1 12 14h.001c.67 0 1.32.07 1.943.204 3.157.677 5.581 2.965 6.047 5.8.09.545-.367.996-.92.996H4.932c-.553 0-1.01-.45-.92-.996.466-2.835 2.89-5.123 6.046-5.8Zm.117-1.548A5.002 5.002 0 0 1 12 3a5 5 0 0 1 .001 10H12c-.644 0-1.26-.122-1.826-.344Zm8.148 6.844c-.758-2.205-3.187-4-6.321-4s-5.563 1.795-6.32 4h12.64Z" clip-rule="evenodd"/></svg>